PathFileType	4	(X/Y/Z)	Walk7.trc
DataRate	CameraRate	NumFrames	NumMarkers	Units	OrigDataRate	OrigDataStartFrame	OrigNumFrames
200.000000	200.000000	9	59	mm	200.000000	526	565
Frame#	Times		CLAV		STRN		RBack		RASI		RACR1		RUA1		RElbow		RFA1		RWRU		LACR1		LUA1		LFA1		LCAR		RTH1		RTH3		RTH2		RLFC		LTH1		LTH3		LLFC		LTB1		LTB3		LTB4		LMT1		LASI		LTH4		RCAR		LTH2		C7		LTB2		LToe		T10		LMMAL		RFHD		RTH4		LFHD		RPSI		LMT5		LLMAL		RWRR		LElbowM		LPSI		RBHD		RTB1		LElbow		LBHD		RTB2		RTB4		RTB3		RMT1		RToe		LWRU		LWRR		RMMAL		RLMAL		RMT5		RCAL		RElbowM		LCAL
			X1	Y1	Z1	X2	Y2	Z2	X3	Y3	Z3	X4	Y4	Z4	X5	Y5	Z5	X6	Y6	Z6	X7	Y7	Z7	X8	Y8	Z8	X9	Y9	Z9	X10	Y10	Z10	X11	Y11	Z11	X12	Y12	Z12	X13	Y13	Z13	X14	Y14	Z14	X15	Y15	Z15	X16	Y16	Z16	X17	Y17	Z17	X18	Y18	Z18	X19	Y19	Z19	X20	Y20	Z20	X21	Y21	Z21	X22	Y22	Z22	X23	Y23	Z23	X24	Y24	Z24	X25	Y25	Z25	X26	Y26	Z26	X27	Y27	Z27	X28	Y28	Z28	X29	Y29	Z29	X30	Y30	Z30	X31	Y31	Z31	X32	Y32	Z32	X33	Y33	Z33	X34	Y34	Z34	X35	Y35	Z35	X36	Y36	Z36	X37	Y37	Z37	X38	Y38	Z38	X39	Y39	Z39	X40	Y40	Z40	X41	Y41	Z41	X42	Y42	Z42	X43	Y43	Z43	X44	Y44	Z44	X45	Y45	Z45	X46	Y46	Z46	X47	Y47	Z47	X48	Y48	Z48	X49	Y49	Z49	X50	Y50	Z50	X51	Y51	Z51	X52	Y52	Z52	X53	Y53	Z53	X54	Y54	Z54	X55	Y55	Z55	X56	Y56	Z56	X57	Y57	Z57	X58	Y58	Z58	X59	Y59	Z59

526	2.63	886.73	1354	-67.695	961.92	1129.7	-58.643	718.08	1328	34.902	920.7	966.21	91.584	835.79	1368.7	106.71	800.48	1160.5	173.3	770.44	1056.7	197.82	826.81	914.08	211.5	794.19	806.5	229.96	822.18	1365	-235.01	809.95	1155.9	-279.41	864.96	919.69	-293.43	902.4	765.41	-294.4	862.11	763.39	142.24	924.67	586.62	111.94	957.36	703.66	108.52	944.97	498.78	98.53	811.25	740.58	-204.09	829.77	559.13	-162.28	826.14	450.94	-146.08	843.53	350.91	-65.562	790.68	171.19	-58.225	818.41	258.77	-65.775	919.04	30.068	-90.396	910.13	949.61	-180.92	819.36	645.89	-182.61	838.91	763.52	227.97	893.04	655.58	-160.87	760.65	1430.5	-64.16	793.65	264.08	-132.73	876.5	40.786	-63.269	730.84	1146.8	-51.946	750.54	78.94	-19.984	934.81	1598.8	-24.682	894.26	674.68	126.89	926.98	1598.1	-97.449	705.6	988.85	27.876	835.91	20.119	-138.05	729.93	64.549	-99.715	847.59	808.51	177.87	773.74	1022.4	-224.59	699.94	984.97	-86.201	764.23	1558.4	12.938	936.75	370.89	39.926	797.44	1035.8	-290.79	756.86	1567.8	-113.48	864.22	313.21	107.76	883.15	294.82	41.689	830.58	219.07	43.239	865.47	55.43	71.884	891.49	42.285	108.69	848.72	798.66	-304.09	897.04	807.22	-250.98	771.69	148.08	16.031	736.06	149.95	89.614	808.45	56.864	131.22	688.4	132.9	35.787	755.97	1033.9	115.31	680.85	33.999	-42.057
527	2.635	891.64	1354.1	-68.098	966.86	1129.7	-59.408	723.1	1327.9	34.633	926.09	966.58	90.973	840.86	1368.6	106.4	804.99	1160.4	172.87	774.73	1056.6	197.21	830.14	913.79	211.26	796.69	806.47	229.94	826.86	1365.3	-235.26	815.55	1156.2	-280.07	872.93	920.69	-294.11	912.75	767.11	-294.79	867.82	763.71	142.23	931.17	587.31	111.4	963.35	704.5	108.31	951.7	499.2	97.899	815.12	740.38	-204.22	832.71	558.82	-162.34	828.53	450.65	-146.12	845.34	350.5	-65.592	791.36	171.1	-58.247	819.67	258.52	-65.787	918.92	30.143	-90.472	915.1	949.42	-181.27	822.71	645.59	-182.6	840.97	763.04	227.97	896.51	654.91	-161.09	765.56	1430.5	-64.367	794.95	263.94	-132.77	876.53	40.856	-63.414	735.95	1146.8	-52.259	750.79	79.058	-19.951	939.92	1598.7	-24.903	900.36	675.19	126.68	932.06	1598	-97.668	710.83	988.93	27.709	835.89	20.093	-138.07	730.08	64.779	-99.721	850.06	807.94	177.86	780.35	1022.4	-225.35	704.94	984.97	-86.305	769.3	1558.4	12.731	946.2	370.97	39.132	803.83	1036	-291.57	761.9	1567.9	-113.67	874.95	311.48	106.6	894.6	293.56	40.63	843.95	216.53	41.931	883.15	54.19	71.236	909.22	41.678	108.31	858.46	799.42	-304.31	906.89	808.93	-251.46	787.06	144.06	14.421	751.04	145.03	87.807	825.63	54.195	130.09	704.14	126.52	33.784	760.32	1033.9	114.66	680.91	34.34	-41.995
528	2.64	896.55	1354	-68.486	971.82	1129.8	-60.152	728.14	1327.8	34.391	931.47	966.86	90.373	845.95	1368.4	106.1	809.52	1160.2	172.46	779.06	1056.6	196.63	833.53	913.47	211.05	799.27	806.41	229.93	831.53	1365.5	-235.49	821.12	1156.5	-280.72	880.87	921.67	-294.79	923.07	768.82	-295.16	873.51	763.98	142.23	937.56	587.91	110.86	969.29	705.23	108.08	958.28	499.49	97.294	819	740.15	-204.35	835.69	558.48	-162.4	830.96	450.33	-146.15	847.19	350.06	-65.614	792.07	170.99	-58.258	820.95	258.24	-65.79	918.82	30.217	-90.549	920.06	949.16	-181.61	826.1	645.28	-182.58	843.12	762.53	227.97	900	654.22	-161.29	770.46	1430.4	-64.552	796.29	263.78	-132.8	876.56	40.917	-63.553	741.06	1146.6	-52.55	751.03	79.15	-19.903	945.01	1598.5	-25.112	906.4	675.62	126.47	937.13	1597.9	-97.874	716.06	988.97	27.556	835.87	20.069	-138.09	730.24	65.01	-99.717	852.6	807.34	177.85	786.97	1022.3	-226.09	709.95	984.94	-86.393	774.36	1558.4	12.548	955.52	370.98	38.328	810.2	1036.1	-292.33	766.94	1568	-113.84	885.69	309.66	105.44	906	292.26	39.562	857.38	213.97	40.614	900.92	53.035	70.598	927.02	41.147	107.94	868.18	800.19	-304.53	916.69	810.65	-251.93	802.6	140.04	12.803	766.18	140.07	85.994	842.93	51.576	128.96	720.11	120.13	31.761	764.72	1033.9	114.05	680.98	34.691	-41.923
529	2.645	901.46	1354	-68.86	976.8	1129.8	-60.873	733.18	1327.5	34.174	936.85	967.07	89.785	851.05	1368.1	105.82	814.08	1160	172.08	783.43	1056.4	196.09	836.97	913.11	210.86	801.94	806.31	229.93	836.18	1365.7	-235.71	826.66	1156.7	-281.34	888.79	922.63	-295.47	933.34	770.53	-295.51	879.2	764.18	142.25	943.85	588.43	110.32	975.17	705.85	107.82	964.71	499.63	96.715	822.9	739.89	-204.48	838.71	558.12	-162.47	833.43	450	-146.19	849.08	349.61	-65.631	792.81	170.87	-58.259	822.26	257.95	-65.785	918.72	30.288	-90.628	925.01	948.84	-181.93	829.52	644.94	-182.57	845.35	762	227.98	903.51	653.51	-161.46	775.37	1430.3	-64.717	797.66	263.61	-132.83	876.6	40.971	-63.686	746.19	1146.5	-52.822	751.27	79.222	-19.838	950.1	1598.2	-25.307	912.38	675.98	126.27	942.19	1597.7	-98.066	721.3	988.96	27.42	835.85	20.045	-138.1	730.41	65.241	-99.702	855.21	806.73	177.84	793.58	1022.2	-226.8	714.97	984.86	-86.466	779.42	1558.3	12.388	964.73	370.94	37.514	816.56	1036.2	-293.07	771.97	1568	-113.99	896.44	307.75	104.28	917.37	290.93	38.485	870.85	211.4	39.287	918.77	51.981	69.959	944.89	40.705	107.56	877.88	800.96	-304.73	926.44	812.38	-252.39	818.29	136.06	11.181	781.49	135.11	84.18	860.33	49.025	127.82	736.3	113.74	29.723	769.16	1033.9	113.48	681.06	35.051	-41.841
530	2.65	906.39	1353.8	-69.22	981.8	1129.7	-61.569	738.25	1327.3	33.981	942.22	967.19	89.208	856.16	1367.8	105.56	818.65	1159.8	171.72	787.84	1056.2	195.58	840.48	912.72	210.68	804.69	806.17	229.93	840.83	1365.8	-235.91	832.18	1156.9	-281.96	896.67	923.55	-296.14	943.56	772.23	-295.84	884.88	764.33	142.28	950.04	588.84	109.79	980.99	706.37	107.55	970.98	499.64	96.163	826.84	739.6	-204.6	841.77	557.74	-162.53	835.95	449.64	-146.21	851	349.13	-65.641	793.58	170.73	-58.251	823.6	257.64	-65.771	918.63	30.355	-90.707	929.94	948.45	-182.24	832.99	644.58	-182.55	847.68	761.45	227.99	907.05	652.78	-161.62	780.27	1430.1	-64.861	799.05	263.42	-132.84	876.64	41.015	-63.812	751.32	1146.3	-53.074	751.51	79.279	-19.757	955.18	1598	-25.487	918.3	676.25	126.09	947.23	1597.5	-98.245	726.55	988.91	27.303	835.83	20.022	-138.11	730.59	65.469	-99.674	857.89	806.09	177.84	800.2	1022	-227.5	720	984.75	-86.523	784.47	1558.2	12.254	973.81	370.83	36.69	822.9	1036.3	-293.78	776.99	1568	-114.12	907.19	305.77	103.13	928.68	289.57	37.4	884.38	208.85	37.954	936.69	51.043	69.304	962.82	40.367	107.17	887.55	801.73	-304.93	936.14	814.1	-252.85	834.13	132.12	9.5582	796.96	130.15	82.37	877.85	46.559	126.68	752.71	107.39	27.678	773.65	1033.8	112.93	681.15	35.419	-41.748
531	2.655	911.32	1353.7	-69.563	986.82	1129.7	-62.242	743.32	1326.9	33.811	947.58	967.21	88.643	861.29	1367.5	105.31	823.26	1159.5	171.38	792.29	1056	195.1	844.06	912.29	210.53	807.53	805.98	229.94	845.46	1365.8	-236.1	837.66	1157	-282.55	904.53	924.44	-296.8	953.74	773.94	-296.16	890.55	764.41	142.32	956.11	589.16	109.27	986.75	706.77	107.25	977.09	499.51	95.639	830.8	739.27	-204.72	844.89	557.32	-162.58	838.51	449.25	-146.24	852.96	348.63	-65.646	794.37	170.57	-58.235	824.97	257.31	-65.749	918.56	30.414	-90.789	934.85	948	-182.55	836.49	644.2	-182.54	850.09	760.87	228	910.61	652.03	-161.74	785.19	1429.9	-64.983	800.48	263.2	-132.85	876.68	41.048	-63.929	756.46	1146	-53.305	751.76	79.33	-19.659	960.25	1597.6	-25.653	924.16	676.45	125.91	952.27	1597.2	-98.408	731.81	988.81	27.206	835.82	20.001	-138.12	730.78	65.694	-99.633	860.65	805.42	177.85	806.81	1021.8	-228.17	725.03	984.6	-86.565	789.53	1558	12.144	982.78	370.67	35.858	829.25	1036.3	-294.48	782	1568	-114.22	917.94	303.74	101.99	939.95	288.2	36.31	897.94	206.32	36.615	954.68	50.237	68.619	980.82	40.149	106.73	897.19	802.5	-305.13	945.78	815.82	-253.29	850.1	128.27	7.9361	812.59	125.23	80.57	895.48	44.197	125.52	769.34	101.1	25.635	778.19	1033.6	112.42	681.24	35.795	-41.644
532	2.66	916.25	1353.5	-69.89	991.87	1129.5	-62.889	748.41	1326.5	33.661	952.95	967.15	88.09	866.42	1367.1	105.08	827.91	1159.2	171.07	796.79	1055.7	194.66	847.7	911.83	210.39	810.45	805.76	229.95	850.1	1365.8	-236.28	843.11	1157.1	-283.12	912.35	925.31	-297.46	963.85	775.63	-296.46	896.22	764.42	142.38	962.06	589.38	108.76	992.45	707.06	106.93	983.05	499.23	95.143	834.8	738.91	-204.81	848.05	556.88	-162.64	841.11	448.83	-146.26	854.96	348.1	-65.647	795.19	170.39	-58.212	826.37	256.96	-65.72	918.5	30.465	-90.871	939.73	947.5	-182.86	840.04	643.78	-182.53	852.61	760.26	228.02	914.2	651.26	-161.85	790.11	1429.6	-65.084	801.94	262.97	-132.85	876.73	41.07	-64.037	761.61	1145.7	-53.517	752.02	79.384	-19.547	965.32	1597.3	-25.803	929.96	676.56	125.74	957.29	1596.9	-98.555	737.09	988.66	27.132	835.8	19.982	-138.12	730.98	65.914	-99.577	863.48	804.74	177.87	813.43	1021.6	-228.82	730.07	984.41	-86.591	794.58	1557.8	12.06	991.62	370.47	35.019	835.58	1036.2	-295.16	787	1567.9	-114.29	928.69	301.65	100.85	951.16	286.84	35.215	911.54	203.83	35.272	972.72	49.581	67.886	998.86	40.067	106.23	906.79	803.27	-305.31	955.36	817.54	-253.72	866.19	124.51	6.3176	828.37	120.36	78.784	913.22	41.958	124.33	786.17	94.9	23.602	782.79	1033.4	111.95	681.35	36.178	-41.53
533	2.665	921.2	1353.2	-70.201	996.93	1129.4	-63.512	753.52	1326.1	33.531	958.32	966.98	87.551	871.57	1366.7	104.86	832.58	1158.8	170.79	801.33	1055.4	194.25	851.4	911.34	210.28	813.47	805.5	229.99	854.73	1365.7	-236.44	848.55	1157.1	-283.67	920.16	926.14	-298.09	973.91	777.32	-296.75	901.87	764.38	142.44	967.9	589.5	108.27	998.09	707.23	106.59	988.86	498.82	94.677	838.83	738.5	-204.89	851.26	556.4	-162.69	843.76	448.38	-146.28	856.99	347.55	-65.643	796.02	170.18	-58.183	827.8	256.58	-65.682	918.47	30.503	-90.955	944.58	946.94	-183.18	843.63	643.33	-182.52	855.22	759.63	228.04	917.82	650.47	-161.94	795.04	1429.3	-65.164	803.42	262.72	-132.85	876.79	41.082	-64.135	766.76	1145.3	-53.708	752.3	79.448	-19.424	970.38	1596.9	-25.937	935.69	676.58	125.59	962.31	1596.6	-98.686	742.39	988.47	27.082	835.8	19.964	-138.12	731.18	66.13	-99.507	866.4	804.03	177.89	820.04	1021.3	-229.45	735.13	984.19	-86.601	799.64	1557.5	12.001	1000.3	370.22	34.175	841.92	1036.1	-295.81	792	1567.7	-114.34	939.44	299.54	99.726	962.33	285.48	34.12	925.17	201.4	33.929	990.79	49.089	67.089	1017	40.14	105.65	916.37	804.04	-305.49	964.88	819.24	-254.14	882.37	120.88	4.7046	844.31	115.57	77.018	931.07	39.862	123.11	803.2	88.811	21.587	787.44	1033.1	111.51	681.46	36.567	-41.405
534	2.67	926.17	1352.9	-70.495	1002	1129.1	-64.11	758.64	1325.6	33.418	963.69	966.72	87.027	876.73	1366.2	104.67	837.3	1158.4	170.52	805.91	1055.1	193.87	855.18	910.81	210.19	816.58	805.2	230.03	859.37	1365.6	-236.59	853.95	1157	-284.2	927.94	926.94	-298.71	983.91	779.01	-297.03	907.52	764.26	142.52	973.62	589.5	107.79	1003.7	707.28	106.24	994.51	498.26	94.24	842.89	738.06	-204.96	854.52	555.89	-162.75	846.46	447.9	-146.29	859.06	346.96	-65.634	796.88	169.96	-58.147	829.25	256.18	-65.637	918.46	30.529	-91.042	949.41	946.33	-183.5	847.26	642.85	-182.51	857.94	758.97	228.08	921.47	649.65	-162	799.98	1429	-65.223	804.94	262.45	-132.83	876.87	41.083	-64.223	771.92	1144.9	-53.878	752.6	79.526	-19.294	975.44	1596.4	-26.053	941.35	676.52	125.45	967.32	1596.2	-98.799	747.7	988.24	27.055	835.79	19.949	-138.12	731.39	66.341	-99.421	869.41	803.3	177.93	826.64	1020.9	-230.06	740.19	983.92	-86.595	804.7	1557.2	11.968	1009	369.94	33.328	848.26	1036	-296.44	796.99	1567.5	-114.37	950.19	297.4	98.617	973.44	284.14	33.025	938.82	199.05	32.587	1008.9	48.777	66.212	1035.1	40.386	104.96	925.9	804.81	-305.66	974.35	820.93	-254.55	898.63	117.39	3.0994	860.38	110.88	75.274	949.02	37.927	121.86	820.41	82.86	19.594	792.14	1032.8	111.1	681.58	36.96	-41.268
